{"asset":{"version":"2.0","generator":"THREE.GLTFExporter"},"scenes":[{"nodes":[0],"name":"AuxScene"}],"scene":0,"nodes":[{"mesh":0}],"bufferViews":[{"buffer":0,"byteOffset":0,"byteLength":45504,"target":34962,"byteStride":12},{"buffer":0,"byteOffset":45504,"byteLength":45504,"target":34962,"byteStride":12}],"buffers":[{"byteLength":91008,"uri":"data:application/octet-stream;base64,"}],"accessors":[{"bufferView":0,"componentType":5126,"count":3792,"max":[100.61190795898438,31.595970153808594,100.61190795898438],"min":[-100.78809356689453,0.5959699749946594,-100.78809356689453],"type":"VEC3"},{"bufferView":1,"componentType":5126,"count":3792,"max":[0,1,0],"min":[0,1,0],"type":"VEC3"}],"materials":[{"pbrMetallicRoughness":{"baseColorFactor":[0.5019607843137255,0.5019607843137255,0.5019607843137255,1],"metallicFactor":0,"roughnessFactor":1}}],"meshes":[{"primitives":[{"mode":4,"attributes":{"POSITION":0,"NORMAL":1},"material":0}]}]}